<svg xmlns="http://www.w3.org/2000/svg" xmlns:xlink="http://www.w3.org/1999/xlink" id="body_1" preserveAspectRatio="xMinYMin meet" viewBox="0 0 793 1121"><defs><clipPath id="1"><path clip-rule="evenodd" d="M0 841L0 -0.6799927L0 -0.6799927L595.44 -0.6799927L595.44 -0.6799927L595.44 841L595.44 841L0 841z" /></clipPath><clipPath id="2"><path clip-rule="evenodd" d="M8.873E-06 841L595.44 841L595.44 841L595.44 -0.6799927L595.44 -0.6799927L8.873E-06 -0.6799927z" /></clipPath><clipPath id="3"><path clip-rule="evenodd" d="M8.873E-06 841L595.44 841L595.44 841L595.44 -0.6799927L595.44 -0.6799927L8.873E-06 -0.6799927z" /></clipPath><clipPath id="4"><path clip-rule="evenodd" d="M8.873E-06 841L595.44 841L595.44 841L595.44 -0.6799927L595.44 -0.6799927L8.873E-06 -0.6799927z" /></clipPath><clipPath id="5"><path clip-rule="evenodd" d="M8.873E-06 841L595.44 841L595.44 841L595.44 -0.6799927L595.44 -0.6799927L8.873E-06 -0.6799927z" /></clipPath><clipPath id="6"><path clip-rule="evenodd" d="M8.873E-06 841L595.44 841L595.44 841L595.44 -0.6799927L595.44 -0.6799927L8.873E-06 -0.6799927z" /></clipPath><clipPath id="7"><path clip-rule="evenodd" d="M8.873E-06 841L595.44 841L595.44 841L595.44 -0.6799927L595.44 -0.6799927L8.873E-06 -0.6799927z" /></clipPath><clipPath id="8"><path clip-rule="evenodd" d="M8.873E-06 841L595.44 841L595.44 841L595.44 -0.6799927L595.44 -0.6799927L8.873E-06 -0.6799927z" /></clipPath><clipPath id="9"><path clip-rule="evenodd" d="M8.873E-06 841L595.44 841L595.44 841L595.44 -0.6799927L595.44 -0.6799927L8.873E-06 -0.6799927z" /></clipPath><clipPath id="10"><path clip-rule="evenodd" d="M8.873E-06 841L595.44 841L595.44 841L595.44 -0.6799927L595.44 -0.6799927L8.873E-06 -0.6799927z" /></clipPath><clipPath id="11"><path clip-rule="evenodd" d="M8.873E-06 841L595.44 841L595.44 841L595.44 -0.6799927L595.44 -0.6799927L8.873E-06 -0.6799927z" /></clipPath><clipPath id="12"><path clip-rule="evenodd" d="M8.873E-06 841L595.44 841L595.44 841L595.44 -0.6799927L595.44 -0.6799927L8.873E-06 -0.6799927z" /></clipPath><clipPath id="13"><path clip-rule="evenodd" d="M8.873E-06 841L595.44 841L595.44 841L595.44 -0.6799927L595.44 -0.6799927L8.873E-06 -0.6799927z" /></clipPath><clipPath id="14"><path clip-rule="evenodd" d="M8.873E-06 841L595.44 841L595.44 841L595.44 -0.6799927L595.44 -0.6799927L8.873E-06 -0.6799927z" /></clipPath><clipPath id="15"><path clip-rule="evenodd" d="M8.873E-06 841L595.44 841L595.44 841L595.44 -0.6799927L595.44 -0.6799927L8.873E-06 -0.6799927z" /></clipPath><clipPath id="16"><path clip-rule="evenodd" d="M8.873E-06 841L595.44 841L595.44 841L595.44 -0.6799927L595.44 -0.6799927L8.873E-06 -0.6799927z" /></clipPath><clipPath id="17"><path clip-rule="evenodd" d="M8.873E-06 841L595.44 841L595.44 841L595.44 -0.6799927L595.44 -0.6799927L8.873E-06 -0.6799927z" /></clipPath><clipPath id="18"><path clip-rule="evenodd" d="M8.873E-06 841L595.44 841L595.44 841L595.44 -0.6799927L595.44 -0.6799927L8.873E-06 -0.6799927z" /></clipPath><clipPath id="19"><path clip-rule="evenodd" d="M8.873E-06 841L595.44 841L595.44 841L595.44 -0.6799927L595.44 -0.6799927L8.873E-06 -0.6799927z" /></clipPath><clipPath id="20"><path clip-rule="evenodd" d="M8.873E-06 841L595.44 841L595.44 841L595.44 -0.6799927L595.44 -0.6799927L8.873E-06 -0.6799927z" /></clipPath><clipPath id="21"><path clip-rule="evenodd" d="M8.873E-06 841L595.44 841L595.44 841L595.44 -0.6799927L595.44 -0.6799927L8.873E-06 -0.6799927z" /></clipPath><clipPath id="22"><path clip-rule="evenodd" d="M8.873E-06 841L595.44 841L595.44 841L595.44 -0.6799927L595.44 -0.6799927L8.873E-06 -0.6799927z" /></clipPath><clipPath id="23"><path clip-rule="evenodd" d="M8.873E-06 841L595.44 841L595.44 841L595.44 -0.6799927L595.44 -0.6799927L8.873E-06 -0.6799927z" /></clipPath><clipPath id="24"><path clip-rule="evenodd" d="M8.873E-06 841L595.44 841L595.44 841L595.44 -0.6799927L595.44 -0.6799927L8.873E-06 -0.6799927z" /></clipPath><clipPath id="25"><path clip-rule="evenodd" d="M8.873E-06 841L595.44 841L595.44 841L595.44 -0.6799927L595.44 -0.6799927L8.873E-06 -0.6799927z" /></clipPath><clipPath id="26"><path clip-rule="evenodd" d="M8.873E-06 841L595.44 841L595.44 841L595.44 -0.6799927L595.44 -0.6799927L8.873E-06 -0.6799927z" /></clipPath><clipPath id="27"><path clip-rule="evenodd" d="M8.873E-06 841L595.44 841L595.44 841L595.44 -0.6799927L595.44 -0.6799927L8.873E-06 -0.6799927z" /></clipPath><clipPath id="28"><path clip-rule="evenodd" d="M8.873E-06 841L595.44 841L595.44 841L595.44 -0.6799927L595.44 -0.6799927L8.873E-06 -0.6799927z" /></clipPath><clipPath id="29"><path clip-rule="evenodd" d="M8.873E-06 841L595.44 841L595.44 841L595.44 -0.6799927L595.44 -0.6799927L8.873E-06 -0.6799927z" /></clipPath><clipPath id="30"><path clip-rule="evenodd" d="M8.873E-06 841L595.44 841L595.44 841L595.44 -0.6799927L595.44 -0.6799927L8.873E-06 -0.6799927z" /></clipPath><clipPath id="31"><path clip-rule="evenodd" d="M8.873E-06 841L595.44 841L595.44 841L595.44 -0.6799927L595.44 -0.6799927L8.873E-06 -0.6799927z" /></clipPath><clipPath id="32"><path clip-rule="evenodd" d="M8.873E-06 841L595.44 841L595.44 841L595.44 -0.6799927L595.44 -0.6799927L8.873E-06 -0.6799927z" /></clipPath><clipPath id="33"><path clip-rule="evenodd" d="M8.873E-06 841L595.44 841L595.44 841L595.44 -0.6799927L595.44 -0.6799927L8.873E-06 -0.6799927z" /></clipPath><clipPath id="34"><path clip-rule="evenodd" d="M8.873E-06 841L595.44 841L595.44 841L595.44 -0.6799927L595.44 -0.6799927L8.873E-06 -0.6799927z" /></clipPath><clipPath id="35"><path clip-rule="evenodd" d="M8.873E-06 841L595.44 841L595.44 841L595.44 -0.6799927L595.44 -0.6799927L8.873E-06 -0.6799927z" /></clipPath><clipPath id="36"><path clip-rule="evenodd" d="M8.873E-06 841L595.44 841L595.44 841L595.44 -0.6799927L595.44 -0.6799927L8.873E-06 -0.6799927z" /></clipPath><clipPath id="37"><path clip-rule="evenodd" d="M8.873E-06 841L595.44 841L595.44 841L595.44 -0.6799927L595.44 -0.6799927L8.873E-06 -0.6799927z" /></clipPath><clipPath id="38"><path clip-rule="evenodd" d="M8.873E-06 841L595.44 841L595.44 841L595.44 -0.6799927L595.44 -0.6799927L8.873E-06 -0.6799927z" /></clipPath><clipPath id="39"><path clip-rule="evenodd" d="M8.873E-06 841L595.44 841L595.44 841L595.44 -0.6799927L595.44 -0.6799927L8.873E-06 -0.6799927z" /></clipPath><clipPath id="40"><path clip-rule="evenodd" d="M8.873E-06 841L595.44 841L595.44 841L595.44 -0.6799927L595.44 -0.6799927L8.873E-06 -0.6799927z" /></clipPath><clipPath id="41"><path clip-rule="evenodd" d="M8.873E-06 841L595.44 841L595.44 841L595.44 -0.6799927L595.44 -0.6799927L8.873E-06 -0.6799927z" /></clipPath><clipPath id="42"><path clip-rule="evenodd" d="M8.873E-06 841L595.44 841L595.44 841L595.44 -0.6799927L595.44 -0.6799927L8.873E-06 -0.6799927z" /></clipPath><clipPath id="43"><path clip-rule="evenodd" d="M8.873E-06 841L595.44 841L595.44 841L595.44 -0.6799927L595.44 -0.6799927L8.873E-06 -0.6799927z" /></clipPath><clipPath id="44"><path clip-rule="evenodd" d="M8.873E-06 841L595.44 841L595.44 841L595.44 -0.6799927L595.44 -0.6799927L8.873E-06 -0.6799927z" /></clipPath><clipPath id="45"><path clip-rule="evenodd" d="M8.873E-06 841L595.44 841L595.44 841L595.44 -0.6799927L595.44 -0.6799927L8.873E-06 -0.6799927z" /></clipPath><clipPath id="46"><path clip-rule="evenodd" d="M8.873E-06 841L595.44 841L595.44 841L595.44 -0.6799927L595.44 -0.6799927L8.873E-06 -0.6799927z" /></clipPath><clipPath id="47"><path clip-rule="evenodd" d="M8.873E-06 841L595.44 841L595.44 841L595.44 -0.6799927L595.44 -0.6799927L8.873E-06 -0.6799927z" /></clipPath><clipPath id="48"><path clip-rule="evenodd" d="M8.873E-06 841L595.44 841L595.44 841L595.44 -0.6799927L595.44 -0.6799927L8.873E-06 -0.6799927z" /></clipPath><clipPath id="49"><path clip-rule="evenodd" d="M8.873E-06 841L595.44 841L595.44 841L595.44 -0.6799927L595.44 -0.6799927L8.873E-06 -0.6799927z" /></clipPath><clipPath id="50"><path clip-rule="evenodd" d="M8.873E-06 841L595.44 841L595.44 841L595.44 -0.6799927L595.44 -0.6799927L8.873E-06 -0.6799927z" /></clipPath><clipPath id="51"><path clip-rule="evenodd" d="M8.873E-06 841L595.44 841L595.44 841L595.44 -0.6799927L595.44 -0.6799927L8.873E-06 -0.6799927z" /></clipPath><clipPath id="52"><path clip-rule="evenodd" d="M8.873E-06 841L595.44 841L595.44 841L595.44 -0.6799927L595.44 -0.6799927L8.873E-06 -0.6799927z" /></clipPath><clipPath id="53"><path clip-rule="evenodd" d="M8.873E-06 841L595.44 841L595.44 841L595.44 -0.6799927L595.44 -0.6799927L8.873E-06 -0.6799927z" /></clipPath><clipPath id="54"><path clip-rule="evenodd" d="M8.873E-06 841L595.44 841L595.44 841L595.44 -0.6799927L595.44 -0.6799927L8.873E-06 -0.6799927z" /></clipPath><clipPath id="55"><path clip-rule="evenodd" d="M8.873E-06 841L595.44 841L595.44 841L595.44 -0.6799927L595.44 -0.6799927L8.873E-06 -0.6799927z" /></clipPath><clipPath id="56"><path clip-rule="evenodd" d="M8.873E-06 841L595.44 841L595.44 841L595.44 -0.6799927L595.44 -0.6799927L8.873E-06 -0.6799927z" /></clipPath><clipPath id="57"><path clip-rule="evenodd" d="M8.873E-06 841L595.44 841L595.44 841L595.44 -0.6799927L595.44 -0.6799927L8.873E-06 -0.6799927z" /></clipPath><clipPath id="58"><path clip-rule="evenodd" d="M8.873E-06 841L595.44 841L595.44 841L595.44 -0.6799927L595.44 -0.6799927L8.873E-06 -0.6799927z" /></clipPath><clipPath id="59"><path clip-rule="evenodd" d="M8.873E-06 841L595.44 841L595.44 841L595.44 -0.6799927L595.44 -0.6799927L8.873E-06 -0.6799927z" /></clipPath><clipPath id="60"><path clip-rule="evenodd" d="M8.873E-06 841L595.44 841L595.44 841L595.44 -0.6799927L595.44 -0.6799927L8.873E-06 -0.6799927z" /></clipPath><clipPath id="61"><path clip-rule="evenodd" d="M8.873E-06 841L595.44 841L595.44 841L595.44 -0.6799927L595.44 -0.6799927L8.873E-06 -0.6799927z" /></clipPath><clipPath id="62"><path clip-rule="evenodd" d="M8.873E-06 841L595.44 841L595.44 841L595.44 -0.6799927L595.44 -0.6799927L8.873E-06 -0.6799927z" /></clipPath><clipPath id="63"><path clip-rule="evenodd" d="M8.873E-06 841L595.44 841L595.44 841L595.44 -0.6799927L595.44 -0.6799927L8.873E-06 -0.6799927z" /></clipPath><clipPath id="64"><path clip-rule="evenodd" d="M8.873E-06 841L595.44 841L595.44 841L595.44 -0.6799927L595.44 -0.6799927L8.873E-06 -0.6799927z" /></clipPath><clipPath id="65"><path clip-rule="evenodd" d="M8.873E-06 841L595.44 841L595.44 841L595.44 -0.6799927L595.44 -0.6799927L8.873E-06 -0.6799927z" /></clipPath><clipPath id="66"><path clip-rule="evenodd" d="M8.873E-06 841L595.44 841L595.44 841L595.44 -0.6799927L595.44 -0.6799927L8.873E-06 -0.6799927z" /></clipPath><clipPath id="67"><path clip-rule="evenodd" d="M8.873E-06 841L595.44 841L595.44 841L595.44 -0.6799927L595.44 -0.6799927L8.873E-06 -0.6799927z" /></clipPath><clipPath id="68"><path clip-rule="evenodd" d="M8.873E-06 841L595.44 841L595.44 841L595.44 -0.6799927L595.44 -0.6799927L8.873E-06 -0.6799927z" /></clipPath><clipPath id="69"><path clip-rule="evenodd" d="M8.873E-06 841L595.44 841L595.44 841L595.44 -0.6799927L595.44 -0.6799927L8.873E-06 -0.6799927z" /></clipPath><clipPath id="70"><path clip-rule="evenodd" d="M8.873E-06 841L595.44 841L595.44 841L595.44 -0.6799927L595.44 -0.6799927L8.873E-06 -0.6799927z" /></clipPath><clipPath id="71"><path clip-rule="evenodd" d="M8.873E-06 841L595.44 841L595.44 841L595.44 -0.6799927L595.44 -0.6799927L8.873E-06 -0.6799927z" /></clipPath><clipPath id="72"><path clip-rule="evenodd" d="M8.873E-06 841L595.44 841L595.44 841L595.44 -0.6799927L595.44 -0.6799927L8.873E-06 -0.6799927z" /></clipPath><clipPath id="73"><path clip-rule="evenodd" d="M8.873E-06 841L595.44 841L595.44 841L595.44 -0.6799927L595.44 -0.6799927L8.873E-06 -0.6799927z" /></clipPath><clipPath id="74"><path clip-rule="evenodd" d="M8.873E-06 841L595.44 841L595.44 841L595.44 -0.6799927L595.44 -0.6799927L8.873E-06 -0.6799927z" /></clipPath><clipPath id="75"><path clip-rule="evenodd" d="M8.873E-06 841L595.44 841L595.44 841L595.44 -0.6799927L595.44 -0.6799927L8.873E-06 -0.6799927z" /></clipPath><clipPath id="76"><path clip-rule="evenodd" d="M8.873E-06 841L595.44 841L595.44 841L595.44 -0.6799927L595.44 -0.6799927L8.873E-06 -0.6799927z" /></clipPath><clipPath id="77"><path clip-rule="evenodd" d="M8.873E-06 841L595.44 841L595.44 841L595.44 -0.6799927L595.44 -0.6799927L8.873E-06 -0.6799927z" /></clipPath><clipPath id="78"><path clip-rule="evenodd" d="M8.873E-06 841L595.44 841L595.44 841L595.44 -0.6799927L595.44 -0.6799927L8.873E-06 -0.6799927z" /></clipPath><clipPath id="79"><path clip-rule="evenodd" d="M8.873E-06 841L595.44 841L595.44 841L595.44 -0.6799927L595.44 -0.6799927L8.873E-06 -0.6799927z" /></clipPath><clipPath id="80"><path clip-rule="evenodd" d="M8.873E-06 841L595.44 841L595.44 841L595.44 -0.6799927L595.44 -0.6799927L8.873E-06 -0.6799927z" /></clipPath><clipPath id="81"><path clip-rule="evenodd" d="M8.873E-06 841L595.44 841L595.44 841L595.44 -0.6799927L595.44 -0.6799927L8.873E-06 -0.6799927z" /></clipPath><clipPath id="82"><path clip-rule="evenodd" d="M8.873E-06 841L595.44 841L595.44 841L595.44 -0.6799927L595.44 -0.6799927L8.873E-06 -0.6799927z" /></clipPath><clipPath id="83"><path clip-rule="evenodd" d="M8.873E-06 841L595.44 841L595.44 841L595.44 -0.6799927L595.44 -0.6799927L8.873E-06 -0.6799927z" /></clipPath><clipPath id="84"><path clip-rule="evenodd" d="M8.873E-06 841L595.44 841L595.44 841L595.44 -0.6799927L595.44 -0.6799927L8.873E-06 -0.6799927z" /></clipPath><clipPath id="85"><path clip-rule="evenodd" d="M8.873E-06 841L595.44 841L595.44 841L595.44 -0.6799927L595.44 -0.6799927L8.873E-06 -0.6799927z" /></clipPath><clipPath id="86"><path clip-rule="evenodd" d="M8.873E-06 841L595.44 841L595.44 841L595.44 -0.6799927L595.44 -0.6799927L8.873E-06 -0.6799927z" /></clipPath><clipPath id="87"><path clip-rule="evenodd" d="M8.873E-06 841L595.44 841L595.44 841L595.44 -0.6799927L595.44 -0.6799927L8.873E-06 -0.6799927z" /></clipPath><clipPath id="88"><path clip-rule="evenodd" d="M8.873E-06 841L595.44 841L595.44 841L595.44 -0.6799927L595.44 -0.6799927L8.873E-06 -0.6799927z" /></clipPath><clipPath id="89"><path clip-rule="evenodd" d="M8.873E-06 841L595.44 841L595.44 841L595.44 -0.6799927L595.44 -0.6799927L8.873E-06 -0.6799927z" /></clipPath><clipPath id="90"><path clip-rule="evenodd" d="M8.873E-06 841L595.44 841L595.44 841L595.44 -0.6799927L595.44 -0.6799927L8.873E-06 -0.6799927z" /></clipPath><clipPath id="91"><path clip-rule="evenodd" d="M8.873E-06 841L595.44 841L595.44 841L595.44 -0.6799927L595.44 -0.6799927L8.873E-06 -0.6799927z" /></clipPath><clipPath id="92"><path clip-rule="evenodd" d="M8.873E-06 841L595.44 841L595.44 841L595.44 -0.6799927L595.44 -0.6799927L8.873E-06 -0.6799927z" /></clipPath><clipPath id="93"><path clip-rule="evenodd" d="M8.873E-06 841L595.44 841L595.44 841L595.44 -0.6799927L595.44 -0.6799927L8.873E-06 -0.6799927z" /></clipPath><clipPath id="94"><path clip-rule="evenodd" d="M8.873E-06 841L595.44 841L595.44 841L595.44 -0.6799927L595.44 -0.6799927L8.873E-06 -0.6799927z" /></clipPath><clipPath id="95"><path clip-rule="evenodd" d="M8.873E-06 841L595.44 841L595.44 841L595.44 -0.6799927L595.44 -0.6799927L8.873E-06 -0.6799927z" /></clipPath><clipPath id="96"><path clip-rule="evenodd" d="M8.873E-06 841L595.44 841L595.44 841L595.44 -0.6799927L595.44 -0.6799927L8.873E-06 -0.6799927z" /></clipPath><clipPath id="97"><path clip-rule="evenodd" d="M8.873E-06 841L595.44 841L595.44 841L595.44 -0.6799927L595.44 -0.6799927L8.873E-06 -0.6799927z" /></clipPath><clipPath id="98"><path clip-rule="evenodd" d="M8.873E-06 841L595.44 841L595.44 841L595.44 -0.6799927L595.44 -0.6799927L8.873E-06 -0.6799927z" /></clipPath><clipPath id="99"><path clip-rule="evenodd" d="M8.873E-06 841L595.44 841L595.44 841L595.44 -0.6799927L595.44 -0.6799927L8.873E-06 -0.6799927z" /></clipPath><clipPath id="100"><path clip-rule="evenodd" d="M8.873E-06 841L595.44 841L595.44 841L595.44 -0.6799927L595.44 -0.6799927L8.873E-06 -0.6799927z" /></clipPath><clipPath id="101"><path clip-rule="evenodd" d="M8.873E-06 841L595.44 841L595.44 841L595.44 -0.6799927L595.44 -0.6799927L8.873E-06 -0.6799927z" /></clipPath><clipPath id="102"><path clip-rule="evenodd" d="M8.873E-06 841L595.44 841L595.44 841L595.44 -0.6799927L595.44 -0.6799927L8.873E-06 -0.6799927z" /></clipPath><clipPath id="103"><path clip-rule="evenodd" d="M8.873E-06 841L595.44 841L595.44 841L595.44 -0.6799927L595.44 -0.6799927L8.873E-06 -0.6799927z" /></clipPath><clipPath id="104"><path clip-rule="evenodd" d="M8.873E-06 841L595.44 841L595.44 841L595.44 -0.6799927L595.44 -0.6799927L8.873E-06 -0.6799927z" /></clipPath><clipPath id="105"><path clip-rule="evenodd" d="M8.873E-06 841L595.44 841L595.44 841L595.44 -0.6799927L595.44 -0.6799927L8.873E-06 -0.6799927z" /></clipPath><clipPath id="106"><path clip-rule="evenodd" d="M8.873E-06 841L595.44 841L595.44 841L595.44 -0.6799927L595.44 -0.6799927L8.873E-06 -0.6799927z" /></clipPath><clipPath id="107"><path clip-rule="evenodd" d="M8.873E-06 841L595.44 841L595.44 841L595.44 -0.6799927L595.44 -0.6799927L8.873E-06 -0.6799927z" /></clipPath><clipPath id="108"><path clip-rule="evenodd" d="M8.873E-06 841L595.44 841L595.44 841L595.44 -0.6799927L595.44 -0.6799927L8.873E-06 -0.6799927z" /></clipPath><clipPath id="109"><path clip-rule="evenodd" d="M8.873E-06 841L595.44 841L595.44 841L595.44 -0.6799927L595.44 -0.6799927L8.873E-06 -0.6799927z" /></clipPath><clipPath id="110"><path clip-rule="evenodd" d="M8.873E-06 841L595.44 841L595.44 841L595.44 -0.6799927L595.44 -0.6799927L8.873E-06 -0.6799927z" /></clipPath><clipPath id="111"><path clip-rule="evenodd" d="M8.873E-06 841L595.44 841L595.44 841L595.44 -0.6799927L595.44 -0.6799927L8.873E-06 -0.6799927z" /></clipPath><clipPath id="112"><path clip-rule="evenodd" d="M8.873E-06 841L595.44 841L595.44 841L595.44 -0.6799927L595.44 -0.6799927L8.873E-06 -0.6799927z" /></clipPath><clipPath id="113"><path clip-rule="evenodd" d="M8.873E-06 841L595.44 841L595.44 841L595.44 -0.6799927L595.44 -0.6799927L8.873E-06 -0.6799927z" /></clipPath><clipPath id="114"><path clip-rule="evenodd" d="M8.873E-06 841L595.44 841L595.44 841L595.44 -0.6799927L595.44 -0.6799927L8.873E-06 -0.6799927z" /></clipPath><clipPath id="115"><path clip-rule="evenodd" d="M8.873E-06 841L595.44 841L595.44 841L595.44 -0.6799927L595.44 -0.6799927L8.873E-06 -0.6799927z" /></clipPath><clipPath id="116"><path clip-rule="evenodd" d="M8.873E-06 841L595.44 841L595.44 841L595.44 -0.6799927L595.44 -0.6799927L8.873E-06 -0.6799927z" /></clipPath><clipPath id="117"><path clip-rule="evenodd" d="M8.873E-06 841L595.44 841L595.44 841L595.44 -0.6799927L595.44 -0.6799927L8.873E-06 -0.6799927z" /></clipPath><clipPath id="118"><path clip-rule="evenodd" d="M8.873E-06 841L595.44 841L595.44 841L595.44 -0.6799927L595.44 -0.6799927L8.873E-06 -0.6799927z" /></clipPath><clipPath id="119"><path clip-rule="evenodd" d="M8.873E-06 841L595.44 841L595.44 841L595.44 -0.6799927L595.44 -0.6799927L8.873E-06 -0.6799927z" /></clipPath><clipPath id="120"><path clip-rule="evenodd" d="M8.873E-06 841L595.44 841L595.44 841L595.44 -0.6799927L595.44 -0.6799927L8.873E-06 -0.6799927z" /></clipPath><clipPath id="121"><path clip-rule="evenodd" d="M8.873E-06 841L595.44 841L595.44 841L595.44 -0.6799927L595.44 -0.6799927L8.873E-06 -0.6799927z" /></clipPath><clipPath id="122"><path clip-rule="evenodd" d="M8.873E-06 841L595.44 841L595.44 841L595.44 -0.6799927L595.44 -0.6799927L8.873E-06 -0.6799927z" /></clipPath><clipPath id="123"><path clip-rule="evenodd" d="M8.873E-06 841L595.44 841L595.44 841L595.44 -0.6799927L595.44 -0.6799927L8.873E-06 -0.6799927z" /></clipPath><clipPath id="124"><path clip-rule="evenodd" d="M8.873E-06 841L595.44 841L595.44 841L595.44 -0.6799927L595.44 -0.6799927L8.873E-06 -0.6799927z" /></clipPath><clipPath id="125"><path clip-rule="evenodd" d="M8.873E-06 841L595.44 841L595.44 841L595.44 -0.6799927L595.44 -0.6799927L8.873E-06 -0.6799927z" /></clipPath><clipPath id="126"><path clip-rule="evenodd" d="M8.873E-06 841L595.44 841L595.44 841L595.44 -0.6799927L595.44 -0.6799927L8.873E-06 -0.6799927z" /></clipPath><clipPath id="127"><path clip-rule="evenodd" d="M8.873E-06 172.36L595.44 172.36L595.44 172.36L595.44 35.32001L595.44 35.32001L8.873E-06 35.32001z" /></clipPath><clipPath id="128"><path clip-rule="evenodd" d="M-2.2052E-05 840.9996L595.44 840.9996L595.44 840.9996L595.44 -0.6803589L595.44 -0.6803589L-2.2052E-05 -0.6803589z" /></clipPath><clipPath id="129"><path clip-rule="evenodd" d="M178.58 92.09998L452.13 92.09998L452.13 92.09998L452.13 62.67596L452.13 62.67596L178.58 62.67596z" /></clipPath><clipPath id="130"><path clip-rule="evenodd" d="M178.58 92.09998L452.13 92.09998L452.13 92.09998L452.13 62.67596L452.13 62.67596L178.58 62.67596z" /></clipPath><clipPath id="131"><path clip-rule="evenodd" d="M178.58 92.09998L452.13 92.09998L452.13 92.09998L452.13 62.67596L452.13 62.67596L178.58 62.67596z" /></clipPath><clipPath id="132"><path clip-rule="evenodd" d="M-8.892E-06 840.9997L595.44 840.9997L595.44 840.9997L595.44 -0.6802979L595.44 -0.6802979L-8.892E-06 -0.6802979z" /></clipPath><clipPath id="133"><path clip-rule="evenodd" d="M-3.949E-06 840.9999L595.44 840.9999L595.44 840.9999L595.44 -0.6801147L595.44 -0.6801147L-3.949E-06 -0.6801147z" /></clipPath><clipPath id="134"><path clip-rule="evenodd" d="M198.72 155.8L340.08 155.8L340.08 155.8L340.08 142.48L340.08 142.48L198.72 142.48z" /></clipPath><clipPath id="135"><path clip-rule="evenodd" d="M198.72 155.8L340.08 155.8L340.08 155.8L340.08 142.48L340.08 142.48L198.72 142.48z" /></clipPath><clipPath id="136"><path clip-rule="evenodd" d="M-1.367E-06 840.9998L595.44 840.9998L595.44 840.9998L595.44 -0.6801758L595.44 -0.6801758L-1.367E-06 -0.6801758z" /></clipPath><clipPath id="137"><path clip-rule="evenodd" d="M-8.829E-06 840.9999L595.44 840.9999L595.44 840.9999L595.44 -0.6801147L595.44 -0.6801147L-8.829E-06 -0.6801147z" /></clipPath><clipPath id="138"><path clip-rule="evenodd" d="M198.84 114.64L327.48 114.64L327.48 114.64L327.48 101.2L327.48 101.2L198.84 101.2z" /></clipPath><clipPath id="139"><path clip-rule="evenodd" d="M198.84 114.64L327.48 114.64L327.48 114.64L327.48 101.2L327.48 101.2L198.84 101.2z" /></clipPath><clipPath id="140"><path clip-rule="evenodd" d="M-2.1338E-05 840.9997L595.44 840.9997L595.44 840.9997L595.44 -0.6802979L595.44 -0.6802979L-2.1338E-05 -0.6802979z" /></clipPath><clipPath id="141"><path clip-rule="evenodd" d="M-8.829E-06 840.9999L595.44 840.9999L595.44 840.9999L595.44 -0.6801147L595.44 -0.6801147L-8.829E-06 -0.6801147z" /></clipPath><clipPath id="142"><path clip-rule="evenodd" d="M198.84 135.16L340.92 135.16L340.92 135.16L340.92 121.24L340.92 121.24L198.84 121.24z" /></clipPath><clipPath id="143"><path clip-rule="evenodd" d="M198.84 135.16L340.92 135.16L340.92 135.16L340.92 121.24L340.92 121.24L198.84 121.24z" /></clipPath><clipPath id="144"><path clip-rule="evenodd" d="M178.58 61.71997L423.45 61.71997L423.45 61.71997L423.45 32.19995L423.45 32.19995L178.58 32.19995z" /></clipPath><clipPath id="145"><path clip-rule="evenodd" d="M178.58 61.71997L423.45 61.71997L423.45 61.71997L423.45 32.19995L423.45 32.19995L178.58 32.19995z" /></clipPath><clipPath id="146"><path clip-rule="evenodd" d="M178.58 61.71997L423.45 61.71997L423.45 61.71997L423.45 32.19995L423.45 32.19995L178.58 32.19995z" /></clipPath><clipPath id="147"><path clip-rule="evenodd" d="M36.24 243.09L138.38 243.09L138.38 243.09L138.38 215.946L138.38 215.946L36.24 215.946z" /></clipPath><clipPath id="148"><path clip-rule="evenodd" d="M36.24 243.09L138.38 243.09L138.38 243.09L138.38 215.946L138.38 215.946L36.24 215.946z" /></clipPath><clipPath id="149"><path clip-rule="evenodd" d="M36.24 243.09L138.38 243.09L138.38 243.09L138.38 215.946L138.38 215.946L36.24 215.946z" /></clipPath><clipPath id="150"><path clip-rule="evenodd" d="M36.24 243.09L138.38 243.09L138.38 243.09L138.38 215.946L138.38 215.946L36.24 215.946z" /></clipPath><clipPath id="151"><path clip-rule="evenodd" d="M36.24 243.09L138.38 243.09L138.38 243.09L138.38 215.946L138.38 215.946L36.24 215.946z" /></clipPath><clipPath id="152"><path clip-rule="evenodd" d="M36.96 280.89L77.904 280.89L77.904 280.89L77.904 251.49L77.904 251.49L36.96 251.49z" /></clipPath><clipPath id="153"><path clip-rule="evenodd" d="M36.96 280.89L77.904 280.89L77.904 280.89L77.904 251.49L77.904 251.49L36.96 251.49z" /></clipPath><clipPath id="154"><path clip-rule="evenodd" d="M36.96 280.89L77.904 280.89L77.904 280.89L77.904 251.49L77.904 251.49L36.96 251.49z" /></clipPath><clipPath id="155"><path clip-rule="evenodd" d="M36.96 280.89L77.904 280.89L77.904 280.89L77.904 251.49L77.904 251.49L36.96 251.49z" /></clipPath><clipPath id="156"><path clip-rule="evenodd" d="M36.96 280.89L77.904 280.89L77.904 280.89L77.904 251.49L77.904 251.49L36.96 251.49z" /></clipPath><clipPath id="157"><path clip-rule="evenodd" d="M180.89 232.26L245.21 232.26L245.21 232.26L245.21 215.34L245.21 215.34L180.89 215.34z" /></clipPath><clipPath id="158"><path clip-rule="evenodd" d="M180.89 232.26L245.21 232.26L245.21 232.26L245.21 215.34L245.21 215.34L180.89 215.34z" /></clipPath><clipPath id="159"><path clip-rule="evenodd" d="M180.89 232.26L245.21 232.26L245.21 232.26L245.21 215.34L245.21 215.34L180.89 215.34z" /></clipPath><clipPath id="160"><path clip-rule="evenodd" d="M180.89 314.61L559.32 314.61L559.32 314.61L559.32 230.466L559.32 230.466L180.89 230.466z" /></clipPath><clipPath id="161"><path clip-rule="evenodd" d="M180.89 314.61L559.32 314.61L559.32 314.61L559.32 230.466L559.32 230.466L180.89 230.466z" /></clipPath><clipPath id="162"><path clip-rule="evenodd" d="M180.89 314.61L559.32 314.61L559.32 314.61L559.32 230.466L559.32 230.466L180.89 230.466z" /></clipPath><clipPath id="163"><path clip-rule="evenodd" d="M180.89 314.61L559.32 314.61L559.32 314.61L559.32 230.466L559.32 230.466L180.89 230.466z" /></clipPath><clipPath id="164"><path clip-rule="evenodd" d="M180.89 314.61L559.32 314.61L559.32 314.61L559.32 230.466L559.32 230.466L180.89 230.466z" /></clipPath><clipPath id="165"><path clip-rule="evenodd" d="M180.89 314.61L559.32 314.61L559.32 314.61L559.32 230.466L559.32 230.466L180.89 230.466z" /></clipPath><clipPath id="166"><path clip-rule="evenodd" d="M180.89 314.61L559.32 314.61L559.32 314.61L559.32 230.466L559.32 230.466L180.89 230.466z" /></clipPath><clipPath id="167"><path clip-rule="evenodd" d="M180.89 314.61L559.32 314.61L559.32 314.61L559.32 230.466L559.32 230.466L180.89 230.466z" /></clipPath><clipPath id="168"><path clip-rule="evenodd" d="M180.89 314.61L559.32 314.61L559.32 314.61L559.32 230.466L559.32 230.466L180.89 230.466z" /></clipPath><clipPath id="169"><path clip-rule="evenodd" d="M180.89 314.61L559.32 314.61L559.32 314.61L559.32 230.466L559.32 230.466L180.89 230.466z" /></clipPath><clipPath id="170"><path clip-rule="evenodd" d="M180.89 314.61L559.32 314.61L559.32 314.61L559.32 230.466L559.32 230.466L180.89 230.466z" /></clipPath><clipPath id="171"><path clip-rule="evenodd" d="M3.93E-06 840.9998L595.44 840.9998L595.44 840.9998L595.44 -0.6801758L595.44 -0.6801758L3.93E-06 -0.6801758z" /></clipPath><clipPath id="172"><path clip-rule="evenodd" d="M-7.08E-07 840.9999L595.44 840.9999L595.44 840.9999L595.44 -0.6801147L595.44 -0.6801147L-7.08E-07 -0.6801147z" /></clipPath><clipPath id="173"><path clip-rule="evenodd" d="M171.24 355.96L429.36 355.96L429.36 355.96L429.36 336.04L429.36 336.04L171.24 336.04z" /></clipPath><clipPath id="174"><path clip-rule="evenodd" d="M171.24 355.96L429.36 355.96L429.36 355.96L429.36 336.04L429.36 336.04L171.24 336.04z" /></clipPath><clipPath id="175"><path clip-rule="evenodd" d="M1.463E-06 840.9998L595.44 840.9998L595.44 840.9998L595.44 -0.6802368L595.44 -0.6802368L1.463E-06 -0.6802368z" /></clipPath><clipPath id="176"><path clip-rule="evenodd" d="M-3.01E-06 840.9998L595.44 840.9998L595.44 840.9998L595.44 -0.6801758L595.44 -0.6801758L-3.01E-06 -0.6801758z" /></clipPath><clipPath id="177"><path clip-rule="evenodd" d="M170.64 602.92L428.76 602.92L428.76 602.92L428.76 583.12L428.76 583.12L170.64 583.12z" /></clipPath><clipPath id="178"><path clip-rule="evenodd" d="M170.64 602.92L428.76 602.92L428.76 602.92L428.76 583.12L428.76 583.12L170.64 583.12z" /></clipPath><clipPath id="179"><path clip-rule="evenodd" d="M1.463E-06 840.9998L595.44 840.9998L595.44 840.9998L595.44 -0.6802368L595.44 -0.6802368L1.463E-06 -0.6802368z" /></clipPath><clipPath id="180"><path clip-rule="evenodd" d="M-3.01E-06 840.9999L595.44 840.9999L595.44 840.9999L595.44 -0.6801147L595.44 -0.6801147L-3.01E-06 -0.6801147z" /></clipPath><clipPath id="181"><path clip-rule="evenodd" d="M170.64 732.64L428.76 732.64L428.76 732.64L428.76 712.72L428.76 712.72L170.64 712.72z" /></clipPath><clipPath id="182"><path clip-rule="evenodd" d="M170.64 732.64L428.76 732.64L428.76 732.64L428.76 712.72L428.76 712.72L170.64 712.72z" /></clipPath></defs><g transform="matrix(1.333333 0 0 1.333333 0 0)"><g clip-path="url(#1)"><g clip-path="url(#2)"></g><g clip-path="url(#3)"></g><g clip-path="url(#4)"></g><g clip-path="url(#5)"></g><g clip-path="url(#6)"></g><g clip-path="url(#7)"></g><g clip-path="url(#8)"></g><g clip-path="url(#9)"></g><g clip-path="url(#10)"></g><g clip-path="url(#11)"></g><g clip-path="url(#12)"></g><g clip-path="url(#13)"></g><g clip-path="url(#14)"></g><g clip-path="url(#15)"></g><g clip-path="url(#16)"></g><g clip-path="url(#17)"></g><g clip-path="url(#18)"></g><g clip-path="url(#19)"></g><g clip-path="url(#20)"></g><g clip-path="url(#21)"></g><g clip-path="url(#22)"></g><g clip-path="url(#23)"></g><g clip-path="url(#24)"></g><g clip-path="url(#25)"></g><g clip-path="url(#26)"></g><g clip-path="url(#27)"></g><g clip-path="url(#28)"></g><g clip-path="url(#29)"></g><g clip-path="url(#30)"></g><g clip-path="url(#31)"></g><g clip-path="url(#32)"></g><g clip-path="url(#33)"></g><g clip-path="url(#34)"></g><g clip-path="url(#35)"></g><g clip-path="url(#36)"></g><g clip-path="url(#37)"></g><g clip-path="url(#38)"></g><g clip-path="url(#39)"></g><g clip-path="url(#40)"></g><g clip-path="url(#41)"></g><g clip-path="url(#42)"></g><g clip-path="url(#43)"></g><g clip-path="url(#44)"></g><g clip-path="url(#45)"></g><g clip-path="url(#46)"></g><g clip-path="url(#47)"></g><g clip-path="url(#48)"></g><g clip-path="url(#49)"></g><g clip-path="url(#50)"></g><g clip-path="url(#51)"></g><g clip-path="url(#52)"></g><g clip-path="url(#53)"></g><g clip-path="url(#54)"></g><g clip-path="url(#55)"></g><g clip-path="url(#56)"></g><g clip-path="url(#57)"></g><g clip-path="url(#58)"></g><g clip-path="url(#59)"></g><g clip-path="url(#60)"></g><g clip-path="url(#61)"></g><g clip-path="url(#62)"></g><g clip-path="url(#63)"></g><g clip-path="url(#64)"></g><g clip-path="url(#65)"></g><g clip-path="url(#66)"></g><g clip-path="url(#67)"></g><g clip-path="url(#68)"></g><g clip-path="url(#69)"></g><g clip-path="url(#70)"></g><g clip-path="url(#71)"></g><g clip-path="url(#72)"></g><g clip-path="url(#73)"></g><g clip-path="url(#74)"></g><g clip-path="url(#75)"></g><g clip-path="url(#76)"></g><g clip-path="url(#77)"></g><g clip-path="url(#78)"></g><g clip-path="url(#79)"></g><g clip-path="url(#80)"></g><g clip-path="url(#81)"></g><g clip-path="url(#82)"></g><g clip-path="url(#83)"></g><g clip-path="url(#84)"></g><g clip-path="url(#85)"></g><g clip-path="url(#86)"></g><g clip-path="url(#87)"></g><g clip-path="url(#88)"></g><g clip-path="url(#89)"></g><g clip-path="url(#90)"></g><g clip-path="url(#91)"></g><g clip-path="url(#92)"></g><g clip-path="url(#93)"></g><g clip-path="url(#94)"></g><g clip-path="url(#95)"></g><g clip-path="url(#96)"></g><g clip-path="url(#97)"></g><g clip-path="url(#98)"></g><g clip-path="url(#99)"></g><g clip-path="url(#100)"></g><g clip-path="url(#101)"></g><g clip-path="url(#102)"></g><g clip-path="url(#103)"></g><g clip-path="url(#104)"></g><g clip-path="url(#105)"></g><g clip-path="url(#106)"></g><g clip-path="url(#107)"></g><g clip-path="url(#108)"></g><g clip-path="url(#109)"></g><g clip-path="url(#110)"></g><g clip-path="url(#111)"></g><g clip-path="url(#112)"></g><g clip-path="url(#113)"></g><g clip-path="url(#114)"></g><g clip-path="url(#115)"></g><g clip-path="url(#116)"></g><g clip-path="url(#117)"></g><g clip-path="url(#118)"></g><g clip-path="url(#119)"></g><g clip-path="url(#120)"></g><g clip-path="url(#121)"></g><g clip-path="url(#122)"></g><g clip-path="url(#123)"></g><g clip-path="url(#124)"></g><g clip-path="url(#125)"></g><g clip-path="url(#126)"></g><g clip-path="url(#127)"><g transform="matrix(0.855 0 0 0.855 36 35.32001)"><g transform="matrix(1 0 0 1 0 0)"><image x="0" y="0" xlink:href="img_01.png" width="120" height="150" /></g></g></g><g clip-path="url(#128)"><g transform="matrix(0.37 0 0 0.37 504 35.32001)"><g transform="matrix(1 0 0 1 0 0)"><image x="0" y="0" xlink:href="img_02.png" width="150" height="150" /></g></g></g><g clip-path="url(#129)"><g clip-path="url(#130)"></g><g clip-path="url(#131)"></g></g><path transform="matrix(1 0 0 -1 0 841)" d="M180 634.89L559.5 634.89" stroke="#5B9BD5" stroke-width="1.25" fill="none" /><g clip-path="url(#132)"><g transform="matrix(0.3270909 0 0 0.3272273 178.3 142.172)"><g transform="matrix(1 0 0 1 0 0)"><image x="0" y="0" xlink:href="img_03.png" width="44" height="44" /></g></g></g><g clip-path="url(#133)"><g transform="matrix(0.3603061 0 0 0.36 198.72 142.48)"><g transform="matrix(1 0 0 1 0 0)"><image x="0" y="0" xlink:href="img_04.png" width="392" height="37" /></g></g></g><g clip-path="url(#134)"></g><g clip-path="url(#135)"></g><g clip-path="url(#136)"><g transform="matrix(0.3272046 0 0 0.3272273 178.4 100.972)"><g transform="matrix(1 0 0 1 0 0)"><image x="0" y="0" xlink:href="img_05.png" width="44" height="44" /></g></g></g><g clip-path="url(#137)"><g transform="matrix(0.3610112 0 0 0.3632433 198.84 101.2)"><g transform="matrix(1 0 0 1 0 0)"><image x="0" y="0" xlink:href="img_06.png" width="356" height="37" /></g></g></g><g clip-path="url(#138)"></g><g clip-path="url(#139)"></g><g clip-path="url(#140)"><g transform="matrix(0.3272046 0 0 0.3271818 178.4 120.974)"><g transform="matrix(1 0 0 1 0 0)"><image x="0" y="0" xlink:href="img_07.png" width="44" height="44" /></g></g></g><g clip-path="url(#141)"><g transform="matrix(0.3603046 0 0 0.3663158 198.84 121.24)"><g transform="matrix(1 0 0 1 0 0)"><image x="0" y="0" xlink:href="img_08.png" width="394" height="38" /></g></g></g><g clip-path="url(#142)"></g><g clip-path="url(#143)"></g><g clip-path="url(#144)"><g clip-path="url(#145)"></g><g clip-path="url(#146)"></g></g><g clip-path="url(#147)"><g clip-path="url(#148)"></g><g clip-path="url(#149)"></g><g clip-path="url(#150)"></g><g clip-path="url(#151)"></g></g><g clip-path="url(#152)"><g clip-path="url(#153)"></g><g clip-path="url(#154)"></g><g clip-path="url(#155)"></g><g clip-path="url(#156)"></g></g><g clip-path="url(#157)"><g clip-path="url(#158)"></g><g clip-path="url(#159)"></g></g><g clip-path="url(#160)"><g clip-path="url(#161)"></g><g clip-path="url(#162)"></g><g clip-path="url(#163)"></g><g clip-path="url(#164)"></g><g clip-path="url(#165)"></g><g clip-path="url(#166)"></g><g clip-path="url(#167)"></g><g clip-path="url(#168)"></g><g clip-path="url(#169)"></g><g clip-path="url(#170)"></g></g><g clip-path="url(#171)"><g transform="matrix(0.36 0 0 0.36 289.8 314.82)"><g transform="matrix(1 0 0 1 0 0)"><image x="0" y="0" xlink:href="img_09.png" width="60" height="60" /></g></g></g><g clip-path="url(#172)"><g transform="matrix(0.36 0 0 0.3621818 171.24 336.04)"><g transform="matrix(1 0 0 1 0 0)"><image x="0" y="0" xlink:href="img_10.png" width="717" height="55" /></g></g></g><g clip-path="url(#173)"></g><g clip-path="url(#174)"></g><path transform="matrix(1 0 0 -1 0 841)" d="M36.6 485.38L559.5 485.38" stroke="#5B9BD5" stroke-width="1.25" fill="none" /><g clip-path="url(#175)"><g transform="matrix(0.36 0 0 0.36 289.2 561.81)"><g transform="matrix(1 0 0 1 0 0)"><image x="0" y="0" xlink:href="img_11.png" width="60" height="60" /></g></g></g><g clip-path="url(#176)"><g transform="matrix(0.36 0 0 0.3666666 170.64 583.12)"><g transform="matrix(1 0 0 1 0 0)"><image x="0" y="0" xlink:href="img_12.png" width="717" height="54" /></g></g></g><g clip-path="url(#177)"></g><g clip-path="url(#178)"></g><path transform="matrix(1 0 0 -1 0 841)" d="M36 238.39L558.9 238.39" stroke="#5B9BD5" stroke-width="1.25" fill="none" /><g clip-path="url(#179)"><g transform="matrix(0.36 0 0 0.36 289.2 691.5)"><g transform="matrix(1 0 0 1 0 0)"><image x="0" y="0" xlink:href="img_13.png" width="60" height="60" /></g></g></g><g clip-path="url(#180)"><g transform="matrix(0.36 0 0 0.3621818 170.64 712.72)"><g transform="matrix(1 0 0 1 0 0)"><image x="0" y="0" xlink:href="img_10.png" width="717" height="55" /></g></g></g><g clip-path="url(#181)"></g><g clip-path="url(#182)"></g><path transform="matrix(1 0 0 -1 0 841)" d="M36 108.7L558.9 108.7" stroke="#5B9BD5" stroke-width="1.25" fill="none" /></g></g></svg>