<svg xmlns="http://www.w3.org/2000/svg" xmlns:xlink="http://www.w3.org/1999/xlink" id="body_3" preserveAspectRatio="xMinYMin meet" viewBox="0 0 793 1121"><defs><clipPath id="1"><path clip-rule="evenodd" d="M0 841L0 -0.6799927L0 -0.6799927L595.44 -0.6799927L595.44 -0.6799927L595.44 841L595.44 841L0 841z" /></clipPath><clipPath id="2"><path clip-rule="evenodd" d="M8.873E-06 841L595.44 841L595.44 841L595.44 -0.6799927L595.44 -0.6799927L8.873E-06 -0.6799927z" /></clipPath><clipPath id="3"><path clip-rule="evenodd" d="M8.873E-06 841L595.44 841L595.44 841L595.44 -0.6799927L595.44 -0.6799927L8.873E-06 -0.6799927z" /></clipPath><clipPath id="4"><path clip-rule="evenodd" d="M8.873E-06 841L595.44 841L595.44 841L595.44 -0.6799927L595.44 -0.6799927L8.873E-06 -0.6799927z" /></clipPath><clipPath id="5"><path clip-rule="evenodd" d="M8.873E-06 841L595.44 841L595.44 841L595.44 -0.6799927L595.44 -0.6799927L8.873E-06 -0.6799927z" /></clipPath><clipPath id="6"><path clip-rule="evenodd" d="M8.873E-06 841L595.44 841L595.44 841L595.44 -0.6799927L595.44 -0.6799927L8.873E-06 -0.6799927z" /></clipPath><clipPath id="7"><path clip-rule="evenodd" d="M8.873E-06 841L595.44 841L595.44 841L595.44 -0.6799927L595.44 -0.6799927L8.873E-06 -0.6799927z" /></clipPath><clipPath id="8"><path clip-rule="evenodd" d="M8.873E-06 841L595.44 841L595.44 841L595.44 -0.6799927L595.44 -0.6799927L8.873E-06 -0.6799927z" /></clipPath><clipPath id="9"><path clip-rule="evenodd" d="M8.873E-06 841L595.44 841L595.44 841L595.44 -0.6799927L595.44 -0.6799927L8.873E-06 -0.6799927z" /></clipPath><clipPath id="10"><path clip-rule="evenodd" d="M8.873E-06 841L595.44 841L595.44 841L595.44 -0.6799927L595.44 -0.6799927L8.873E-06 -0.6799927z" /></clipPath><clipPath id="11"><path clip-rule="evenodd" d="M8.873E-06 841L595.44 841L595.44 841L595.44 -0.6799927L595.44 -0.6799927L8.873E-06 -0.6799927z" /></clipPath><clipPath id="12"><path clip-rule="evenodd" d="M8.873E-06 841L595.44 841L595.44 841L595.44 -0.6799927L595.44 -0.6799927L8.873E-06 -0.6799927z" /></clipPath><clipPath id="13"><path clip-rule="evenodd" d="M8.873E-06 841L595.44 841L595.44 841L595.44 -0.6799927L595.44 -0.6799927L8.873E-06 -0.6799927z" /></clipPath><clipPath id="14"><path clip-rule="evenodd" d="M8.873E-06 841L595.44 841L595.44 841L595.44 -0.6799927L595.44 -0.6799927L8.873E-06 -0.6799927z" /></clipPath><clipPath id="15"><path clip-rule="evenodd" d="M8.873E-06 841L595.44 841L595.44 841L595.44 -0.6799927L595.44 -0.6799927L8.873E-06 -0.6799927z" /></clipPath><clipPath id="16"><path clip-rule="evenodd" d="M8.873E-06 841L595.44 841L595.44 841L595.44 -0.6799927L595.44 -0.6799927L8.873E-06 -0.6799927z" /></clipPath><clipPath id="17"><path clip-rule="evenodd" d="M8.873E-06 841L595.44 841L595.44 841L595.44 -0.6799927L595.44 -0.6799927L8.873E-06 -0.6799927z" /></clipPath><clipPath id="18"><path clip-rule="evenodd" d="M8.873E-06 841L595.44 841L595.44 841L595.44 -0.6799927L595.44 -0.6799927L8.873E-06 -0.6799927z" /></clipPath><clipPath id="19"><path clip-rule="evenodd" d="M8.873E-06 841L595.44 841L595.44 841L595.44 -0.6799927L595.44 -0.6799927L8.873E-06 -0.6799927z" /></clipPath><clipPath id="20"><path clip-rule="evenodd" d="M8.873E-06 841L595.44 841L595.44 841L595.44 -0.6799927L595.44 -0.6799927L8.873E-06 -0.6799927z" /></clipPath><clipPath id="21"><path clip-rule="evenodd" d="M8.873E-06 841L595.44 841L595.44 841L595.44 -0.6799927L595.44 -0.6799927L8.873E-06 -0.6799927z" /></clipPath><clipPath id="22"><path clip-rule="evenodd" d="M8.873E-06 841L595.44 841L595.44 841L595.44 -0.6799927L595.44 -0.6799927L8.873E-06 -0.6799927z" /></clipPath><clipPath id="23"><path clip-rule="evenodd" d="M8.873E-06 841L595.44 841L595.44 841L595.44 -0.6799927L595.44 -0.6799927L8.873E-06 -0.6799927z" /></clipPath><clipPath id="24"><path clip-rule="evenodd" d="M8.873E-06 841L595.44 841L595.44 841L595.44 -0.6799927L595.44 -0.6799927L8.873E-06 -0.6799927z" /></clipPath><clipPath id="25"><path clip-rule="evenodd" d="M8.873E-06 841L595.44 841L595.44 841L595.44 -0.6799927L595.44 -0.6799927L8.873E-06 -0.6799927z" /></clipPath><clipPath id="26"><path clip-rule="evenodd" d="M8.873E-06 841L595.44 841L595.44 841L595.44 -0.6799927L595.44 -0.6799927L8.873E-06 -0.6799927z" /></clipPath><clipPath id="27"><path clip-rule="evenodd" d="M8.873E-06 841L595.44 841L595.44 841L595.44 -0.6799927L595.44 -0.6799927L8.873E-06 -0.6799927z" /></clipPath><clipPath id="28"><path clip-rule="evenodd" d="M8.873E-06 841L595.44 841L595.44 841L595.44 -0.6799927L595.44 -0.6799927L8.873E-06 -0.6799927z" /></clipPath><clipPath id="29"><path clip-rule="evenodd" d="M8.873E-06 841L595.44 841L595.44 841L595.44 -0.6799927L595.44 -0.6799927L8.873E-06 -0.6799927z" /></clipPath><clipPath id="30"><path clip-rule="evenodd" d="M8.873E-06 841L595.44 841L595.44 841L595.44 -0.6799927L595.44 -0.6799927L8.873E-06 -0.6799927z" /></clipPath><clipPath id="31"><path clip-rule="evenodd" d="M8.873E-06 841L595.44 841L595.44 841L595.44 -0.6799927L595.44 -0.6799927L8.873E-06 -0.6799927z" /></clipPath><clipPath id="32"><path clip-rule="evenodd" d="M8.873E-06 841L595.44 841L595.44 841L595.44 -0.6799927L595.44 -0.6799927L8.873E-06 -0.6799927z" /></clipPath><clipPath id="33"><path clip-rule="evenodd" d="M8.873E-06 841L595.44 841L595.44 841L595.44 -0.6799927L595.44 -0.6799927L8.873E-06 -0.6799927z" /></clipPath><clipPath id="34"><path clip-rule="evenodd" d="M8.873E-06 841L595.44 841L595.44 841L595.44 -0.6799927L595.44 -0.6799927L8.873E-06 -0.6799927z" /></clipPath><clipPath id="35"><path clip-rule="evenodd" d="M8.873E-06 841L595.44 841L595.44 841L595.44 -0.6799927L595.44 -0.6799927L8.873E-06 -0.6799927z" /></clipPath><clipPath id="36"><path clip-rule="evenodd" d="M8.873E-06 841L595.44 841L595.44 841L595.44 -0.6799927L595.44 -0.6799927L8.873E-06 -0.6799927z" /></clipPath><clipPath id="37"><path clip-rule="evenodd" d="M8.873E-06 841L595.44 841L595.44 841L595.44 -0.6799927L595.44 -0.6799927L8.873E-06 -0.6799927z" /></clipPath><clipPath id="38"><path clip-rule="evenodd" d="M8.873E-06 841L595.44 841L595.44 841L595.44 -0.6799927L595.44 -0.6799927L8.873E-06 -0.6799927z" /></clipPath><clipPath id="39"><path clip-rule="evenodd" d="M8.873E-06 841L595.44 841L595.44 841L595.44 -0.6799927L595.44 -0.6799927L8.873E-06 -0.6799927z" /></clipPath><clipPath id="40"><path clip-rule="evenodd" d="M8.873E-06 841L595.44 841L595.44 841L595.44 -0.6799927L595.44 -0.6799927L8.873E-06 -0.6799927z" /></clipPath><clipPath id="41"><path clip-rule="evenodd" d="M8.873E-06 841L595.44 841L595.44 841L595.44 -0.6799927L595.44 -0.6799927L8.873E-06 -0.6799927z" /></clipPath><clipPath id="42"><path clip-rule="evenodd" d="M8.873E-06 841L595.44 841L595.44 841L595.44 -0.6799927L595.44 -0.6799927L8.873E-06 -0.6799927z" /></clipPath><clipPath id="43"><path clip-rule="evenodd" d="M8.873E-06 841L595.44 841L595.44 841L595.44 -0.6799927L595.44 -0.6799927L8.873E-06 -0.6799927z" /></clipPath><clipPath id="44"><path clip-rule="evenodd" d="M8.873E-06 841L595.44 841L595.44 841L595.44 -0.6799927L595.44 -0.6799927L8.873E-06 -0.6799927z" /></clipPath><clipPath id="45"><path clip-rule="evenodd" d="M8.873E-06 841L595.44 841L595.44 841L595.44 -0.6799927L595.44 -0.6799927L8.873E-06 -0.6799927z" /></clipPath><clipPath id="46"><path clip-rule="evenodd" d="M8.873E-06 841L595.44 841L595.44 841L595.44 -0.6799927L595.44 -0.6799927L8.873E-06 -0.6799927z" /></clipPath><clipPath id="47"><path clip-rule="evenodd" d="M8.873E-06 841L595.44 841L595.44 841L595.44 -0.6799927L595.44 -0.6799927L8.873E-06 -0.6799927z" /></clipPath><clipPath id="48"><path clip-rule="evenodd" d="M8.873E-06 841L595.44 841L595.44 841L595.44 -0.6799927L595.44 -0.6799927L8.873E-06 -0.6799927z" /></clipPath><clipPath id="49"><path clip-rule="evenodd" d="M8.873E-06 841L595.44 841L595.44 841L595.44 -0.6799927L595.44 -0.6799927L8.873E-06 -0.6799927z" /></clipPath><clipPath id="50"><path clip-rule="evenodd" d="M36 354.33L224.81 354.33L224.81 354.33L224.81 340.29L224.81 340.29L36 340.29z" /></clipPath><clipPath id="51"><path clip-rule="evenodd" d="M36 354.33L224.81 354.33L224.81 354.33L224.81 340.29L224.81 340.29L36 340.29z" /></clipPath><clipPath id="52"><path clip-rule="evenodd" d="M36 354.33L224.81 354.33L224.81 354.33L224.81 340.29L224.81 340.29L36 340.29z" /></clipPath><clipPath id="53"><path clip-rule="evenodd" d="M36 354.33L224.81 354.33L224.81 354.33L224.81 340.29L224.81 340.29L36 340.29z" /></clipPath><clipPath id="54"><path clip-rule="evenodd" d="M36 354.33L224.81 354.33L224.81 354.33L224.81 340.29L224.81 340.29L36 340.29z" /></clipPath><clipPath id="55"><path clip-rule="evenodd" d="M224.81 354.33L486.34 354.33L486.34 354.33L486.34 340.29L486.34 340.29L224.81 340.29z" /></clipPath><clipPath id="56"><path clip-rule="evenodd" d="M224.81 354.33L486.34 354.33L486.34 354.33L486.34 340.29L486.34 340.29L224.81 340.29z" /></clipPath><clipPath id="57"><path clip-rule="evenodd" d="M224.81 354.33L486.34 354.33L486.34 354.33L486.34 340.29L486.34 340.29L224.81 340.29z" /></clipPath><clipPath id="58"><path clip-rule="evenodd" d="M224.81 354.33L486.34 354.33L486.34 354.33L486.34 340.29L486.34 340.29L224.81 340.29z" /></clipPath><clipPath id="59"><path clip-rule="evenodd" d="M224.81 354.33L486.34 354.33L486.34 354.33L486.34 340.29L486.34 340.29L224.81 340.29z" /></clipPath><clipPath id="60"><path clip-rule="evenodd" d="M36 368.37L224.81 368.37L224.81 368.37L224.81 354.33L224.81 354.33L36 354.33z" /></clipPath><clipPath id="61"><path clip-rule="evenodd" d="M36 368.37L224.81 368.37L224.81 368.37L224.81 354.33L224.81 354.33L36 354.33z" /></clipPath><clipPath id="62"><path clip-rule="evenodd" d="M36 368.37L224.81 368.37L224.81 368.37L224.81 354.33L224.81 354.33L36 354.33z" /></clipPath><clipPath id="63"><path clip-rule="evenodd" d="M36 368.37L224.81 368.37L224.81 368.37L224.81 354.33L224.81 354.33L36 354.33z" /></clipPath><clipPath id="64"><path clip-rule="evenodd" d="M36 368.37L224.81 368.37L224.81 368.37L224.81 354.33L224.81 354.33L36 354.33z" /></clipPath><clipPath id="65"><path clip-rule="evenodd" d="M224.81 368.37L486.34 368.37L486.34 368.37L486.34 354.33L486.34 354.33L224.81 354.33z" /></clipPath><clipPath id="66"><path clip-rule="evenodd" d="M224.81 368.37L486.34 368.37L486.34 368.37L486.34 354.33L486.34 354.33L224.81 354.33z" /></clipPath><clipPath id="67"><path clip-rule="evenodd" d="M224.81 368.37L486.34 368.37L486.34 368.37L486.34 354.33L486.34 354.33L224.81 354.33z" /></clipPath><clipPath id="68"><path clip-rule="evenodd" d="M224.81 368.37L486.34 368.37L486.34 368.37L486.34 354.33L486.34 354.33L224.81 354.33z" /></clipPath><clipPath id="69"><path clip-rule="evenodd" d="M224.81 368.37L486.34 368.37L486.34 368.37L486.34 354.33L486.34 354.33L224.81 354.33z" /></clipPath><clipPath id="70"><path clip-rule="evenodd" d="M36 382.41L224.81 382.41L224.81 382.41L224.81 368.37L224.81 368.37L36 368.37z" /></clipPath><clipPath id="71"><path clip-rule="evenodd" d="M36 382.41L224.81 382.41L224.81 382.41L224.81 368.37L224.81 368.37L36 368.37z" /></clipPath><clipPath id="72"><path clip-rule="evenodd" d="M36 382.41L224.81 382.41L224.81 382.41L224.81 368.37L224.81 368.37L36 368.37z" /></clipPath><clipPath id="73"><path clip-rule="evenodd" d="M36 382.41L224.81 382.41L224.81 382.41L224.81 368.37L224.81 368.37L36 368.37z" /></clipPath><clipPath id="74"><path clip-rule="evenodd" d="M36 382.41L224.81 382.41L224.81 382.41L224.81 368.37L224.81 368.37L36 368.37z" /></clipPath><clipPath id="75"><path clip-rule="evenodd" d="M224.81 382.41L486.34 382.41L486.34 382.41L486.34 368.37L486.34 368.37L224.81 368.37z" /></clipPath><clipPath id="76"><path clip-rule="evenodd" d="M224.81 382.41L486.34 382.41L486.34 382.41L486.34 368.37L486.34 368.37L224.81 368.37z" /></clipPath><clipPath id="77"><path clip-rule="evenodd" d="M8.873E-06 841L595.44 841L595.44 841L595.44 -0.6799927L595.44 -0.6799927L8.873E-06 -0.6799927z" /></clipPath><clipPath id="78"><path clip-rule="evenodd" d="M8.873E-06 841L595.44 841L595.44 841L595.44 -0.6799927L595.44 -0.6799927L8.873E-06 -0.6799927z" /></clipPath><clipPath id="79"><path clip-rule="evenodd" d="M8.873E-06 841L595.44 841L595.44 841L595.44 -0.6799927L595.44 -0.6799927L8.873E-06 -0.6799927z" /></clipPath><clipPath id="80"><path clip-rule="evenodd" d="M8.873E-06 841L595.44 841L595.44 841L595.44 -0.6799927L595.44 -0.6799927L8.873E-06 -0.6799927z" /></clipPath><clipPath id="81"><path clip-rule="evenodd" d="M8.873E-06 841L595.44 841L595.44 841L595.44 -0.6799927L595.44 -0.6799927L8.873E-06 -0.6799927z" /></clipPath><clipPath id="82"><path clip-rule="evenodd" d="M8.873E-06 841L595.44 841L595.44 841L595.44 -0.6799927L595.44 -0.6799927L8.873E-06 -0.6799927z" /></clipPath><clipPath id="83"><path clip-rule="evenodd" d="M8.873E-06 841L595.44 841L595.44 841L595.44 -0.6799927L595.44 -0.6799927L8.873E-06 -0.6799927z" /></clipPath><clipPath id="84"><path clip-rule="evenodd" d="M8.873E-06 841L595.44 841L595.44 841L595.44 -0.6799927L595.44 -0.6799927L8.873E-06 -0.6799927z" /></clipPath><clipPath id="85"><path clip-rule="evenodd" d="M8.873E-06 841L595.44 841L595.44 841L595.44 -0.6799927L595.44 -0.6799927L8.873E-06 -0.6799927z" /></clipPath><clipPath id="86"><path clip-rule="evenodd" d="M8.873E-06 841L595.44 841L595.44 841L595.44 -0.6799927L595.44 -0.6799927L8.873E-06 -0.6799927z" /></clipPath><clipPath id="87"><path clip-rule="evenodd" d="M8.873E-06 841L595.44 841L595.44 841L595.44 -0.6799927L595.44 -0.6799927L8.873E-06 -0.6799927z" /></clipPath><clipPath id="88"><path clip-rule="evenodd" d="M8.873E-06 841L595.44 841L595.44 841L595.44 -0.6799927L595.44 -0.6799927L8.873E-06 -0.6799927z" /></clipPath><clipPath id="89"><path clip-rule="evenodd" d="M8.873E-06 841L595.44 841L595.44 841L595.44 -0.6799927L595.44 -0.6799927L8.873E-06 -0.6799927z" /></clipPath><clipPath id="90"><path clip-rule="evenodd" d="M8.873E-06 841L595.44 841L595.44 841L595.44 -0.6799927L595.44 -0.6799927L8.873E-06 -0.6799927z" /></clipPath><clipPath id="91"><path clip-rule="evenodd" d="M8.873E-06 841L595.44 841L595.44 841L595.44 -0.6799927L595.44 -0.6799927L8.873E-06 -0.6799927z" /></clipPath><clipPath id="92"><path clip-rule="evenodd" d="M8.873E-06 841L595.44 841L595.44 841L595.44 -0.6799927L595.44 -0.6799927L8.873E-06 -0.6799927z" /></clipPath><clipPath id="93"><path clip-rule="evenodd" d="M8.873E-06 841L595.44 841L595.44 841L595.44 -0.6799927L595.44 -0.6799927L8.873E-06 -0.6799927z" /></clipPath><clipPath id="94"><path clip-rule="evenodd" d="M8.873E-06 841L595.44 841L595.44 841L595.44 -0.6799927L595.44 -0.6799927L8.873E-06 -0.6799927z" /></clipPath><clipPath id="95"><path clip-rule="evenodd" d="M8.873E-06 841L595.44 841L595.44 841L595.44 -0.6799927L595.44 -0.6799927L8.873E-06 -0.6799927z" /></clipPath><clipPath id="96"><path clip-rule="evenodd" d="M8.873E-06 841L595.44 841L595.44 841L595.44 -0.6799927L595.44 -0.6799927L8.873E-06 -0.6799927z" /></clipPath><clipPath id="97"><path clip-rule="evenodd" d="M8.873E-06 841L595.44 841L595.44 841L595.44 -0.6799927L595.44 -0.6799927L8.873E-06 -0.6799927z" /></clipPath><clipPath id="98"><path clip-rule="evenodd" d="M8.873E-06 841L595.44 841L595.44 841L595.44 -0.6799927L595.44 -0.6799927L8.873E-06 -0.6799927z" /></clipPath><clipPath id="99"><path clip-rule="evenodd" d="M8.873E-06 841L595.44 841L595.44 841L595.44 -0.6799927L595.44 -0.6799927L8.873E-06 -0.6799927z" /></clipPath><clipPath id="100"><path clip-rule="evenodd" d="M8.873E-06 841L595.44 841L595.44 841L595.44 -0.6799927L595.44 -0.6799927L8.873E-06 -0.6799927z" /></clipPath><clipPath id="101"><path clip-rule="evenodd" d="M8.873E-06 841L595.44 841L595.44 841L595.44 -0.6799927L595.44 -0.6799927L8.873E-06 -0.6799927z" /></clipPath><clipPath id="102"><path clip-rule="evenodd" d="M8.873E-06 841L595.44 841L595.44 841L595.44 -0.6799927L595.44 -0.6799927L8.873E-06 -0.6799927z" /></clipPath><clipPath id="103"><path clip-rule="evenodd" d="M8.873E-06 841L595.44 841L595.44 841L595.44 -0.6799927L595.44 -0.6799927L8.873E-06 -0.6799927z" /></clipPath><clipPath id="104"><path clip-rule="evenodd" d="M8.873E-06 841L595.44 841L595.44 841L595.44 -0.6799927L595.44 -0.6799927L8.873E-06 -0.6799927z" /></clipPath><clipPath id="105"><path clip-rule="evenodd" d="M8.873E-06 841L595.44 841L595.44 841L595.44 -0.6799927L595.44 -0.6799927L8.873E-06 -0.6799927z" /></clipPath><clipPath id="106"><path clip-rule="evenodd" d="M8.873E-06 841L595.44 841L595.44 841L595.44 -0.6799927L595.44 -0.6799927L8.873E-06 -0.6799927z" /></clipPath><clipPath id="107"><path clip-rule="evenodd" d="M8.873E-06 841L595.44 841L595.44 841L595.44 -0.6799927L595.44 -0.6799927L8.873E-06 -0.6799927z" /></clipPath><clipPath id="108"><path clip-rule="evenodd" d="M8.873E-06 841L595.44 841L595.44 841L595.44 -0.6799927L595.44 -0.6799927L8.873E-06 -0.6799927z" /></clipPath><clipPath id="109"><path clip-rule="evenodd" d="M8.873E-06 841L595.44 841L595.44 841L595.44 -0.6799927L595.44 -0.6799927L8.873E-06 -0.6799927z" /></clipPath><clipPath id="110"><path clip-rule="evenodd" d="M8.873E-06 841L595.44 841L595.44 841L595.44 -0.6799927L595.44 -0.6799927L8.873E-06 -0.6799927z" /></clipPath><clipPath id="111"><path clip-rule="evenodd" d="M8.873E-06 841L595.44 841L595.44 841L595.44 -0.6799927L595.44 -0.6799927L8.873E-06 -0.6799927z" /></clipPath><clipPath id="112"><path clip-rule="evenodd" d="M8.873E-06 841L595.44 841L595.44 841L595.44 -0.6799927L595.44 -0.6799927L8.873E-06 -0.6799927z" /></clipPath><clipPath id="113"><path clip-rule="evenodd" d="M8.873E-06 841L595.44 841L595.44 841L595.44 -0.6799927L595.44 -0.6799927L8.873E-06 -0.6799927z" /></clipPath><clipPath id="114"><path clip-rule="evenodd" d="M8.873E-06 841L595.44 841L595.44 841L595.44 -0.6799927L595.44 -0.6799927L8.873E-06 -0.6799927z" /></clipPath><clipPath id="115"><path clip-rule="evenodd" d="M8.873E-06 841L595.44 841L595.44 841L595.44 -0.6799927L595.44 -0.6799927L8.873E-06 -0.6799927z" /></clipPath><clipPath id="116"><path clip-rule="evenodd" d="M8.873E-06 841L595.44 841L595.44 841L595.44 -0.6799927L595.44 -0.6799927L8.873E-06 -0.6799927z" /></clipPath><clipPath id="117"><path clip-rule="evenodd" d="M8.873E-06 841L595.44 841L595.44 841L595.44 -0.6799927L595.44 -0.6799927L8.873E-06 -0.6799927z" /></clipPath><clipPath id="118"><path clip-rule="evenodd" d="M8.873E-06 841L595.44 841L595.44 841L595.44 -0.6799927L595.44 -0.6799927L8.873E-06 -0.6799927z" /></clipPath><clipPath id="119"><path clip-rule="evenodd" d="M8.873E-06 841L595.44 841L595.44 841L595.44 -0.6799927L595.44 -0.6799927L8.873E-06 -0.6799927z" /></clipPath><clipPath id="120"><path clip-rule="evenodd" d="M8.873E-06 841L595.44 841L595.44 841L595.44 -0.6799927L595.44 -0.6799927L8.873E-06 -0.6799927z" /></clipPath><clipPath id="121"><path clip-rule="evenodd" d="M8.873E-06 841L595.44 841L595.44 841L595.44 -0.6799927L595.44 -0.6799927L8.873E-06 -0.6799927z" /></clipPath><clipPath id="122"><path clip-rule="evenodd" d="M8.873E-06 841L595.44 841L595.44 841L595.44 -0.6799927L595.44 -0.6799927L8.873E-06 -0.6799927z" /></clipPath><clipPath id="123"><path clip-rule="evenodd" d="M8.873E-06 841L595.44 841L595.44 841L595.44 -0.6799927L595.44 -0.6799927L8.873E-06 -0.6799927z" /></clipPath><clipPath id="124"><path clip-rule="evenodd" d="M8.873E-06 841L595.44 841L595.44 841L595.44 -0.6799927L595.44 -0.6799927L8.873E-06 -0.6799927z" /></clipPath><clipPath id="125"><path clip-rule="evenodd" d="M8.873E-06 841L595.44 841L595.44 841L595.44 -0.6799927L595.44 -0.6799927L8.873E-06 -0.6799927z" /></clipPath><clipPath id="126"><path clip-rule="evenodd" d="M8.873E-06 841L595.44 841L595.44 841L595.44 -0.6799927L595.44 -0.6799927L8.873E-06 -0.6799927z" /></clipPath><clipPath id="127"><path clip-rule="evenodd" d="M8.873E-06 841L595.44 841L595.44 841L595.44 -0.6799927L595.44 -0.6799927L8.873E-06 -0.6799927z" /></clipPath><clipPath id="128"><path clip-rule="evenodd" d="M8.873E-06 841L595.44 841L595.44 841L595.44 -0.6799927L595.44 -0.6799927L8.873E-06 -0.6799927z" /></clipPath><clipPath id="129"><path clip-rule="evenodd" d="M8.873E-06 841L595.44 841L595.44 841L595.44 -0.6799927L595.44 -0.6799927L8.873E-06 -0.6799927z" /></clipPath><clipPath id="130"><path clip-rule="evenodd" d="M8.873E-06 841L595.44 841L595.44 841L595.44 -0.6799927L595.44 -0.6799927L8.873E-06 -0.6799927z" /></clipPath><clipPath id="131"><path clip-rule="evenodd" d="M8.873E-06 841L595.44 841L595.44 841L595.44 -0.6799927L595.44 -0.6799927L8.873E-06 -0.6799927z" /></clipPath><clipPath id="132"><path clip-rule="evenodd" d="M8.873E-06 841L595.44 841L595.44 841L595.44 -0.6799927L595.44 -0.6799927L8.873E-06 -0.6799927z" /></clipPath><clipPath id="133"><path clip-rule="evenodd" d="M8.873E-06 841L595.44 841L595.44 841L595.44 -0.6799927L595.44 -0.6799927L8.873E-06 -0.6799927z" /></clipPath><clipPath id="134"><path clip-rule="evenodd" d="M8.873E-06 841L595.44 841L595.44 841L595.44 -0.6799927L595.44 -0.6799927L8.873E-06 -0.6799927z" /></clipPath><clipPath id="135"><path clip-rule="evenodd" d="M8.873E-06 841L595.44 841L595.44 841L595.44 -0.6799927L595.44 -0.6799927L8.873E-06 -0.6799927z" /></clipPath><clipPath id="136"><path clip-rule="evenodd" d="M8.873E-06 841L595.44 841L595.44 841L595.44 -0.6799927L595.44 -0.6799927L8.873E-06 -0.6799927z" /></clipPath><clipPath id="137"><path clip-rule="evenodd" d="M8.873E-06 729.88L595.44 729.88L595.44 729.88L595.44 691.84L595.44 691.84L8.873E-06 691.84z" /></clipPath><clipPath id="138"><path clip-rule="evenodd" d="M1.463E-06 840.9998L595.44 840.9998L595.44 840.9998L595.44 -0.6802368L595.44 -0.6802368L1.463E-06 -0.6802368z" /></clipPath><clipPath id="139"><path clip-rule="evenodd" d="M-3.01E-06 840.9999L595.44 840.9999L595.44 840.9999L595.44 -0.6801147L595.44 -0.6801147L-3.01E-06 -0.6801147z" /></clipPath><clipPath id="140"><path clip-rule="evenodd" d="M170.64 150.76L428.76 150.76L428.76 150.76L428.76 130.84L428.76 130.84L170.64 130.84z" /></clipPath><clipPath id="141"><path clip-rule="evenodd" d="M170.64 150.76L428.76 150.76L428.76 150.76L428.76 130.84L428.76 130.84L170.64 130.84z" /></clipPath><clipPath id="142"><path clip-rule="evenodd" d="M1.463E-06 840.9998L595.44 840.9998L595.44 840.9998L595.44 -0.6802368L595.44 -0.6802368L1.463E-06 -0.6802368z" /></clipPath><clipPath id="143"><path clip-rule="evenodd" d="M-3.01E-06 840.9999L595.44 840.9999L595.44 840.9999L595.44 -0.6801147L595.44 -0.6801147L-3.01E-06 -0.6801147z" /></clipPath><clipPath id="144"><path clip-rule="evenodd" d="M170.64 246.28L428.76 246.28L428.76 246.28L428.76 226.36L428.76 226.36L170.64 226.36z" /></clipPath><clipPath id="145"><path clip-rule="evenodd" d="M170.64 246.28L428.76 246.28L428.76 246.28L428.76 226.36L428.76 226.36L170.64 226.36z" /></clipPath><clipPath id="146"><path clip-rule="evenodd" d="M1.463E-06 840.9998L595.44 840.9998L595.44 840.9998L595.44 -0.6802368L595.44 -0.6802368L1.463E-06 -0.6802368z" /></clipPath><clipPath id="147"><path clip-rule="evenodd" d="M-3.01E-06 840.9999L595.44 840.9999L595.44 840.9999L595.44 -0.6801147L595.44 -0.6801147L-3.01E-06 -0.6801147z" /></clipPath><clipPath id="148"><path clip-rule="evenodd" d="M170.64 327.28L428.76 327.28L428.76 327.28L428.76 307.48L428.76 307.48L170.64 307.48z" /></clipPath><clipPath id="149"><path clip-rule="evenodd" d="M170.64 327.28L428.76 327.28L428.76 327.28L428.76 307.48L428.76 307.48L170.64 307.48z" /></clipPath><clipPath id="150"><path clip-rule="evenodd" d="M1.463E-06 840.9998L595.44 840.9998L595.44 840.9998L595.44 -0.6802368L595.44 -0.6802368L1.463E-06 -0.6802368z" /></clipPath><clipPath id="151"><path clip-rule="evenodd" d="M-3.01E-06 840.9999L595.44 840.9999L595.44 840.9999L595.44 -0.6801147L595.44 -0.6801147L-3.01E-06 -0.6801147z" /></clipPath><clipPath id="152"><path clip-rule="evenodd" d="M170.64 455.08L428.76 455.08L428.76 455.08L428.76 435.16L428.76 435.16L170.64 435.16z" /></clipPath><clipPath id="153"><path clip-rule="evenodd" d="M170.64 455.08L428.76 455.08L428.76 455.08L428.76 435.16L428.76 435.16L170.64 435.16z" /></clipPath><clipPath id="154"><path clip-rule="evenodd" d="M-3.2217E-05 840.9998L595.4399 840.9998L595.4399 840.9998L595.4399 -0.6802368L595.4399 -0.6802368L-3.2217E-05 -0.6802368z" /></clipPath><clipPath id="155"><path clip-rule="evenodd" d="M-3.9427E-05 840.9998L595.4399 840.9998L595.4399 840.9998L595.4399 -0.6802368L595.4399 -0.6802368L-3.9427E-05 -0.6802368z" /></clipPath></defs><g transform="matrix(1.333333 0 0 1.333333 0 0)"><g clip-path="url(#1)"><g clip-path="url(#2)"></g><g clip-path="url(#3)"></g><g clip-path="url(#4)"></g><g clip-path="url(#5)"></g><g clip-path="url(#6)"></g><g clip-path="url(#7)"></g><g clip-path="url(#8)"></g><g clip-path="url(#9)"></g><g clip-path="url(#10)"></g><g clip-path="url(#11)"></g><g clip-path="url(#12)"></g><g clip-path="url(#13)"></g><g clip-path="url(#14)"></g><g clip-path="url(#15)"></g><g clip-path="url(#16)"></g><g clip-path="url(#17)"></g><g clip-path="url(#18)"></g><g clip-path="url(#19)"></g><g clip-path="url(#20)"></g><g clip-path="url(#21)"></g><g clip-path="url(#22)"></g><g clip-path="url(#23)"></g><g clip-path="url(#24)"></g><g clip-path="url(#25)"></g><g clip-path="url(#26)"></g><g clip-path="url(#27)"></g><g clip-path="url(#28)"></g><g clip-path="url(#29)"></g><g clip-path="url(#30)"></g><g clip-path="url(#31)"></g><g clip-path="url(#32)"></g><g clip-path="url(#33)"></g><g clip-path="url(#34)"></g><g clip-path="url(#35)"></g><g clip-path="url(#36)"></g><g clip-path="url(#37)"></g><g clip-path="url(#38)"></g><g clip-path="url(#39)"></g><g clip-path="url(#40)"></g><g clip-path="url(#41)"></g><g clip-path="url(#42)"></g><g clip-path="url(#43)"></g><g clip-path="url(#44)"></g><g clip-path="url(#45)"></g><g clip-path="url(#46)"></g><g clip-path="url(#47)"></g><g clip-path="url(#48)"></g><g clip-path="url(#49)"></g><g clip-path="url(#50)"><g clip-path="url(#51)"></g><g clip-path="url(#52)"></g><g clip-path="url(#53)"></g><g clip-path="url(#54)"></g></g><g clip-path="url(#55)"><g clip-path="url(#56)"></g><g clip-path="url(#57)"></g><g clip-path="url(#58)"></g><g clip-path="url(#59)"></g></g><g clip-path="url(#60)"><g clip-path="url(#61)"></g><g clip-path="url(#62)"></g><g clip-path="url(#63)"></g><g clip-path="url(#64)"></g></g><g clip-path="url(#65)"><g clip-path="url(#66)"></g><g clip-path="url(#67)"></g><g clip-path="url(#68)"></g><g clip-path="url(#69)"></g></g><g clip-path="url(#70)"><g clip-path="url(#71)"></g><g clip-path="url(#72)"></g><g clip-path="url(#73)"></g><g clip-path="url(#74)"></g></g><g clip-path="url(#75)"><g clip-path="url(#76)"></g></g><g clip-path="url(#77)"></g><g clip-path="url(#78)"></g><g clip-path="url(#79)"></g><g clip-path="url(#80)"></g><g clip-path="url(#81)"></g><g clip-path="url(#82)"></g><g clip-path="url(#83)"></g><g clip-path="url(#84)"></g><g clip-path="url(#85)"></g><g clip-path="url(#86)"></g><g clip-path="url(#87)"></g><g clip-path="url(#88)"></g><g clip-path="url(#89)"></g><g clip-path="url(#90)"></g><g clip-path="url(#91)"></g><g clip-path="url(#92)"></g><g clip-path="url(#93)"></g><g clip-path="url(#94)"></g><g clip-path="url(#95)"></g><g clip-path="url(#96)"></g><g clip-path="url(#97)"></g><g clip-path="url(#98)"></g><g clip-path="url(#99)"></g><g clip-path="url(#100)"></g><g clip-path="url(#101)"></g><g clip-path="url(#102)"></g><g clip-path="url(#103)"></g><g clip-path="url(#104)"></g><g clip-path="url(#105)"></g><g clip-path="url(#106)"></g><g clip-path="url(#107)"></g><g clip-path="url(#108)"></g><g clip-path="url(#109)"></g><g clip-path="url(#110)"></g><g clip-path="url(#111)"></g><g clip-path="url(#112)"></g><g clip-path="url(#113)"></g><g clip-path="url(#114)"></g><g clip-path="url(#115)"></g><g clip-path="url(#116)"></g><g clip-path="url(#117)"></g><g clip-path="url(#118)"></g><g clip-path="url(#119)"></g><g clip-path="url(#120)"></g><g clip-path="url(#121)"></g><g clip-path="url(#122)"></g><g clip-path="url(#123)"></g><g clip-path="url(#124)"></g><g clip-path="url(#125)"></g><g clip-path="url(#126)"></g><g clip-path="url(#127)"></g><g clip-path="url(#128)"></g><g clip-path="url(#129)"></g><g clip-path="url(#130)"></g><g clip-path="url(#131)"></g><g clip-path="url(#132)"></g><g clip-path="url(#133)"></g><g clip-path="url(#134)"></g><g clip-path="url(#135)"></g><g clip-path="url(#136)"></g><g clip-path="url(#137)"><g transform="matrix(0.75 0 0 0.75 36 691.9)"><g transform="matrix(1 0 0 1 0 0)"><image x="0" y="0" xlink:href="img_18.png" width="142" height="40" /></g></g></g><g clip-path="url(#138)"><g transform="matrix(0.36 0 0 0.36 289.2 109.59)"><g transform="matrix(1 0 0 1 0 0)"><image x="0" y="0" xlink:href="img_19.png" width="60" height="60" /></g></g></g><g clip-path="url(#139)"><g transform="matrix(0.36 0 0 0.3621818 170.64 130.84)"><g transform="matrix(1 0 0 1 0 0)"><image x="0" y="0" xlink:href="img_10.png" width="717" height="55" /></g></g></g><g clip-path="url(#140)"></g><g clip-path="url(#141)"></g><path transform="matrix(1 0 0 -1 0 841)" d="M36 690.61L558.9 690.61" stroke="#5B9BD5" stroke-width="1.25" fill="none" /><g clip-path="url(#142)"><g transform="matrix(0.36 0 0 0.36 289.2 205.11)"><g transform="matrix(1 0 0 1 0 0)"><image x="0" y="0" xlink:href="img_20.png" width="60" height="60" /></g></g></g><g clip-path="url(#143)"><g transform="matrix(0.36 0 0 0.3621818 170.64 226.36)"><g transform="matrix(1 0 0 1 0 0)"><image x="0" y="0" xlink:href="img_10.png" width="717" height="55" /></g></g></g><g clip-path="url(#144)"></g><g clip-path="url(#145)"></g><path transform="matrix(1 0 0 -1 0 841)" d="M36 595.09L558.9 595.09" stroke="#5B9BD5" stroke-width="1.25" fill="none" /><g clip-path="url(#146)"><g transform="matrix(0.36 0 0 0.36 289.2 286.16)"><g transform="matrix(1 0 0 1 0 0)"><image x="0" y="0" xlink:href="img_21.png" width="60" height="60" /></g></g></g><g clip-path="url(#147)"><g transform="matrix(0.36 0 0 0.3666666 170.64 307.48)"><g transform="matrix(1 0 0 1 0 0)"><image x="0" y="0" xlink:href="img_12.png" width="717" height="54" /></g></g></g><g clip-path="url(#148)"></g><g clip-path="url(#149)"></g><path transform="matrix(1 0 0 -1 0 841)" d="M36 514.04L558.9 514.04" stroke="#5B9BD5" stroke-width="1.25" fill="none" /><g clip-path="url(#150)"><g transform="matrix(0.36 0 0 0.36 289.2 413.94)"><g transform="matrix(1 0 0 1 0 0)"><image x="0" y="0" xlink:href="img_22.png" width="60" height="60" /></g></g></g><g clip-path="url(#151)"><g transform="matrix(0.36 0 0 0.3621818 170.64 435.16)"><g transform="matrix(1 0 0 1 0 0)"><image x="0" y="0" xlink:href="img_10.png" width="717" height="55" /></g></g></g><g clip-path="url(#152)"></g><g clip-path="url(#153)"></g><path transform="matrix(1 0 0 -1 0 841)" d="M36 386.26L558.9 386.26" stroke="#5B9BD5" stroke-width="1.25" fill="none" /><g clip-path="url(#154)"><g transform="matrix(0.3308333 0 0 0.331 460.6 669.61)"><g transform="matrix(1 0 0 1 0 0)"><image x="0" y="0" xlink:href="img_01.png" width="120" height="150" /></g></g></g><g clip-path="url(#155)"><g transform="matrix(0.331 0 0 0.331 506.6 669.61)"><g transform="matrix(1 0 0 1 0 0)"><image x="0" y="0" xlink:href="img_02.png" width="150" height="150" /></g></g></g></g></g></svg>